<?xml version="1.0" encoding="UTF-8"?>
<svg width="21px" height="21px" viewBox="0 0 21 21" version="1.1" xmlns="http://www.w3.org/2000/svg" xmlns:xlink="http://www.w3.org/1999/xlink">
    <title>编组 5</title>
    <g id="开发版本" stroke="none" stroke-width="1" fill="none" fill-rule="evenodd">
        <g id="报警信息1" transform="translate(-300.000000, -125.000000)" fill="#8D96A5">
            <g id="编组-5" transform="translate(300.000000, 125.000000)">
                <path d="M16.4460417,0 C17.5506112,-1.75721836e-15 18.4460417,0.8954305 18.4460417,2 C18.4460417,2.40680892 18.3219858,2.80394484 18.0904261,3.13841996 L11.2631784,13 L11.2631784,17.5193752 C11.2631784,17.8231589 11.1250886,18.1104718 10.8878734,18.300244 L7.88787341,20.700244 C7.45661148,21.0452535 6.8273191,20.9753321 6.48230955,20.5440702 C6.34045912,20.3667572 6.26317836,20.1464466 6.26317836,19.9193752 L6.26317836,12 L0.336111958,3.10940039 C-0.27659296,2.19034302 -0.0282452226,0.94860433 0.890812155,0.335899411 C1.21934719,0.116876055 1.60536258,9.60711183e-16 2.00021255,0 L16.4460417,0 Z M19.2631784,18 C19.8154631,18 20.2631784,18.4477153 20.2631784,19 C20.2631784,19.5522847 19.8154631,20 19.2631784,20 L14.2631784,20 C13.7108936,20 13.2631784,19.5522847 13.2631784,19 C13.2631784,18.4477153 13.7108936,18 14.2631784,18 L19.2631784,18 Z M19.2631784,14 C19.8154631,14 20.2631784,14.4477153 20.2631784,15 C20.2631784,15.5522847 19.8154631,16 19.2631784,16 L14.2631784,16 C13.7108936,16 13.2631784,15.5522847 13.2631784,15 C13.2631784,14.4477153 13.7108936,14 14.2631784,14 L19.2631784,14 Z M19.2631784,10 C19.8154631,10 20.2631784,10.4477153 20.2631784,11 C20.2631784,11.5522847 19.8154631,12 19.2631784,12 L16.2631784,12 C15.7108936,12 15.2631784,11.5522847 15.2631784,11 C15.2631784,10.4477153 15.7108936,10 16.2631784,10 L19.2631784,10 Z" id="形状结合"></path>
            </g>
        </g>
    </g>
</svg>