<svg xmlns="http://www.w3.org/2000/svg" xmlns:xlink="http://www.w3.org/1999/xlink" width="1026" height="1025"
     viewBox="0 0 1026 1025" fill="none">
    <defs>
        <path id="a" d="M0 0h1026v1025H0z"/>
        <linearGradient id="c" x1="82.171%" y1="13.683%" y2="43.501%" gradientUnits="objectBoundingBox">
            <stop offset="0" stop-color="#FFF" stop-opacity=".9"/>
            <stop offset="1" stop-color="#FFF" stop-opacity=".8"/>
        </linearGradient>
    </defs>
    <g>
        <mask id="b" fill="#fff">
            <use xlink:href="#a"/>
        </mask>
        <g mask="url(#b)">
            <path fill-rule="evenodd" d="M0 1024h1024V0H0v1024z" fill="#A2D2E6"/>
            <path fill-rule="evenodd"
                  d="M549.36 559.36A29.513 29.513 0 0 1 528.5 568h-124c-7.82 0-15.33-3.11-20.86-8.64A29.513 29.513 0 0 1 375 538.5c0-7.82 3.11-15.33 8.64-20.86A29.513 29.513 0 0 1 404.5 509H499v-94.5c0-7.82 3.11-15.33 8.64-20.86A29.513 29.513 0 0 1 528.5 385c7.82 0 15.33 3.11 20.86 8.64A29.513 29.513 0 0 1 558 414.5v124c0 7.82-3.11 15.33-8.64 20.86z"
                  fill="#fff"/>
            <path fill-rule="evenodd"
                  d="M782.943 512c0-149.43-121.54-271-270.94-271-149.4 0-270.95 121.57-270.95 271s121.55 271 270.95 271c149.4 0 270.94-121.57 270.94-271zm-476.6.004c0 113.41 92.26 205.69 205.66 205.69 113.39 0 205.65-92.28 205.65-205.69 0-113.42-92.26-205.7-205.65-205.7-113.4 0-205.66 92.28-205.66 205.7z"
                  fill="#fff"/>
            <path d="M782.943 512c0-149.43-121.54-271-270.94-271-149.4 0-270.95 121.57-270.95 271s121.55 271 270.95 271c149.4 0 270.94-121.57 270.94-271zm-476.6.004c0 113.41 92.26 205.69 205.66 205.69 113.39 0 205.65-92.28 205.65-205.69 0-113.42-92.26-205.7-205.65-205.7-113.4 0-205.66 92.28-205.66 205.7z"
                  stroke="#a2d2e6" stroke-width="9" stroke-dasharray="0 0"/>
            <path fill-rule="evenodd" fill="url(#c)" transform="translate(111.906 112.005)"
                  d="M771.83 339.71c13.31-1.27 25.25 8.54 26.51 21.84 1.17 12.72 1.85 25.63 1.85 38.45 0 53.98-10.59 106.4-31.46 155.72-20.2 47.67-49.05 90.39-85.75 127.19-36.71 36.7-79.54 65.53-127.22 85.73-49.23 20.77-101.67 31.35-155.67 31.35-53.99 0-106.43-10.58-155.76-31.45-47.68-20.2-90.41-49.03-127.21-85.73-36.71-36.7-65.55-79.51-85.75-127.18C10.59 506.4 0 453.98 0 400c0-53.98 10.59-106.41 31.46-155.73 20.2-47.67 49.04-90.39 85.75-127.18 36.71-36.7 79.54-65.54 127.22-85.73C293.66 10.58 346.1 0 400.09 0c72.542 0 143.578 19.608 205.481 56.7l-4.963-17.215c-3.393-11.77 2.319-24.626 13.713-29.18 13.086-5.22 27.646 2.145 31.458 15.366l23.057 79.973c2.623 9.099-2.615 18.581-11.715 21.205l-28.922 8.338.012.039-50.359 14.518c-11.771 3.394-24.626-2.319-29.178-13.703-5.217-13.077 2.148-27.637 15.379-31.451l18.153-5.234C527.518 66.05 464.478 48.54 400.09 48.54 206.26 48.54 48.56 206.21 48.56 400c0 193.78 157.7 351.45 351.53 351.45 193.84 0 351.54-157.67 351.54-351.45 0-11.26-.58-22.62-1.65-33.79-1.26-13.3 8.55-25.24 21.85-26.5z"/>
        </g>
    </g>
</svg>