<svg xmlns="http://www.w3.org/2000/svg" xmlns:xlink="http://www.w3.org/1999/xlink" width="40" height="40" viewBox="0 0 40 40" fill="none"><defs><rect id="path_0" x="0" y="0" width="40" height="40" /></defs><g opacity="1" transform="translate(0 0)  rotate(0 20 20)"><mask id="bg-mask-0" fill="white"><use xlink:href="#path_0"></use></mask><g mask="url(#bg-mask-0)" ><path id="Vector" fill-rule="evenodd" style="fill:#FFFFFF" transform="translate(1.17 0.15)  rotate(0 18.825 19.445)" opacity="1" d="M21.33 32.94L21.32 32.93C21.17 32.78 21.06 32.6 20.99 32.4C20.93 32.2 20.91 31.99 20.94 31.78L20.91 23.61C11.71 23.61 3.39 30.21 1.74 38.89C0.59 36.27 0 33.45 0 30.59C0 19.08 9.37 9.75 20.94 9.75L20.94 1.56C20.91 1.35 20.93 1.14 20.99 0.94C21.06 0.74 21.17 0.56 21.32 0.41C21.59 0.15 21.95 0 22.32 0C22.69 0 23.05 0.15 23.32 0.41L37.25 15.61C37.39 15.75 37.49 15.92 37.56 16.1C37.63 16.28 37.66 16.48 37.65 16.67C37.66 16.87 37.63 17.06 37.56 17.24C37.49 17.43 37.39 17.59 37.25 17.73L23.4 32.85C23.14 33.16 22.77 33.37 22.33 33.37C22.15 33.37 21.96 33.33 21.79 33.26C21.62 33.18 21.46 33.08 21.33 32.94Z" /></g></g></svg>